<svg width="24" height="25" viewBox="0 0 24 25" fill="none" xmlns="http://www.w3.org/2000/svg">
<path fill-rule="evenodd" clip-rule="evenodd" d="M3 19.8993C3 19.347 3.44772 18.8993 4 18.8993L10.2222 18.8993C10.7745 18.8993 11.2222 19.347 11.2222 19.8993C11.2222 20.4516 10.7745 20.8993 10.2222 20.8993L4 20.8993C3.44772 20.8993 3 20.4516 3 19.8993ZM14.7778 18.8993L14.7778 17.2326C14.7778 16.6803 14.3301 16.2326 13.7778 16.2326C13.2255 16.2326 12.7778 16.6803 12.7778 17.2326L12.7778 19.8993L12.7778 22.5659C12.7778 23.1182 13.2255 23.5659 13.7778 23.5659C14.3301 23.5659 14.7778 23.1182 14.7778 22.5659L14.7778 20.8993L20 20.8993C20.5523 20.8993 21 20.4516 21 19.8993C21 19.347 20.5523 18.8993 20 18.8993L14.7778 18.8993ZM12 11.7881C11.4477 11.7881 11 12.2358 11 12.7881C11 13.3404 11.4477 13.7881 12 13.7881L20 13.7881C20.5523 13.7881 21 13.3404 21 12.7881C21 12.2358 20.5523 11.7881 20 11.7881L12 11.7881ZM3 12.7881C3 12.2358 3.44771 11.7881 4 11.7881L7.44446 11.7881L7.44446 10.1215C7.44446 9.56922 7.89217 9.1215 8.44446 9.1215C8.99674 9.1215 9.44446 9.56922 9.44446 10.1215L9.44446 15.4548C9.44446 16.0071 8.99674 16.4548 8.44446 16.4548C7.89217 16.4548 7.44446 16.0071 7.44446 15.4548L7.44446 13.7881L4 13.7881C3.44771 13.7881 3 13.3404 3 12.7881ZM14.5555 5.677L14.5555 3.01042C14.5555 2.45813 15.0033 2.01042 15.5555 2.01042C16.1078 2.01042 16.5555 2.45813 16.5555 3.01042L16.5555 4.677L20 4.677C20.5523 4.677 21 5.12472 21 5.677C21 6.22929 20.5523 6.677 20 6.677L16.5555 6.677L16.5555 8.34375C16.5555 8.89603 16.1078 9.34375 15.5555 9.34375C15.0033 9.34375 14.5555 8.89603 14.5555 8.34375L14.5555 5.677ZM3 5.677C3 5.12472 3.44771 4.677 4 4.677L12 4.677C12.5523 4.677 13 5.12472 13 5.677C13 6.22929 12.5523 6.677 12 6.677L4 6.677C3.44771 6.677 3 6.22929 3 5.677Z" fill="#676767"/>
</svg>
