<svg width="25" height="24" viewBox="0 0 25 24" fill="none" xmlns="http://www.w3.org/2000/svg">
<path d="M12.5 1.09278e-06C19.3914 4.90315e-07 25 5.32812 25 11.875C25 18.4219 19.3915 23.75 12.5 23.75C5.60856 23.75 1.61049e-06 18.4219 1.03815e-06 11.875C4.65799e-07 5.32813 5.60855 1.69525e-06 12.5 1.09278e-06ZM9.40461 11.4344C9.14803 11.6781 9.14803 12.075 9.40461 12.3188L13.352 16.0688C13.4803 16.1906 13.648 16.2531 13.8158 16.2531C13.9836 16.2531 14.1513 16.1906 14.2796 16.0688C14.5362 15.825 14.5362 15.4281 14.2796 15.1844L10.7961 11.875L14.2796 8.56563C14.5362 8.32188 14.5362 7.925 14.2796 7.68125C14.023 7.4375 13.6053 7.4375 13.3487 7.68125L9.40132 11.4313L9.40461 11.4344Z" fill="#3253FF"/>
</svg>
