<svg fill="none" height="24" viewBox="0 0 25 24" width="25" xmlns="http://www.w3.org/2000/svg"><path d="m12.5 24c-6.89145 0-12.5-5.3281-12.5-11.875 0-6.54688 5.60855-11.875 12.5-11.875 6.8914 0 12.5 5.32812 12.5 11.875 0 6.5469-5.6086 11.875-12.5 11.875zm3.0954-11.4344c.2566-.2437.2566-.6406 0-.8844l-3.9474-3.74995c-.1283-.12187-.296-.18437-.4638-.18437s-.3355.0625-.4638.18437c-.2566.24375-.2566.64062 0 .88437l3.4835 3.30938-3.4835 3.3094c-.2566.2437-.2566.6406 0 .8843.2566.2438.6743.2438.9309 0l3.9474-3.75z" fill="#3253ff"/></svg>