<svg width="34" height="30" viewBox="0 0 34 30" fill="none" xmlns="http://www.w3.org/2000/svg">
<path fill-rule="evenodd" clip-rule="evenodd" d="M2.59302 4.53169C4.22777 4.53169 5.55291 5.82907 5.55291 7.42876C5.55291 5.82907 6.87805 4.53169 8.51254 4.53169C6.87805 4.53169 5.55291 3.23481 5.55291 1.63461C5.55291 3.23481 4.22777 4.53169 2.59302 4.53169Z" fill="#0700DB"/>
<mask id="mask0_6_542" style="mask-type:luminance" maskUnits="userSpaceOnUse" x="2" y="1" width="7" height="7">
<path d="M2.59302 4.53178C4.22777 4.53178 5.55291 5.82917 5.55291 7.42885C5.55291 5.82917 6.87805 4.53178 8.51254 4.53178C6.87805 4.53178 5.55291 3.2349 5.55291 1.6347C5.55291 3.2349 4.22777 4.53178 2.59302 4.53178Z" fill="white"/>
</mask>
<g mask="url(#mask0_6_542)">
<path d="M8.51254 1.6347H2.59302V7.42885H8.51254V1.6347Z" fill="#0700DB"/>
</g>
<path fill-rule="evenodd" clip-rule="evenodd" d="M15.2956 28.11C16.1559 28.2229 17.0256 28.2474 17.8904 28.1834C17.9229 27.3402 17.8331 26.4634 17.6256 25.5771C17.4219 24.7105 17.105 23.8357 16.6788 22.976C18.5836 23.0484 20.5123 22.3724 21.9666 20.9491C24.7354 18.2389 24.7351 13.8451 21.9666 11.1351C19.1981 8.42487 14.7094 8.42487 11.9409 11.1351C10.4866 12.5584 9.79632 14.4464 9.86975 16.3112C8.99223 15.8936 8.09804 15.5837 7.21296 15.3844C6.30757 15.181 5.41156 15.093 4.55018 15.1251C4.48534 15.9719 4.51034 16.8227 4.62543 17.6649C6.97053 17.6045 9.72836 18.7479 11.9589 20.9315C14.1894 23.1152 15.3581 25.8145 15.2958 28.11M10.0494 9.28359C13.8624 5.55124 20.0446 5.55124 23.8576 9.28359C27.6705 13.0164 27.6708 19.0678 23.8576 22.8001C22.8235 23.8128 21.5877 24.5716 20.2441 25.0421C20.4446 25.9123 20.5592 26.8027 20.5706 27.6945C22.4658 27.1325 24.2513 26.1183 25.7493 24.6516C30.607 19.8967 30.607 12.1873 25.7493 7.43233C20.8914 2.67685 13.0158 2.67685 8.15793 7.43233C6.65962 8.89896 5.62378 10.6465 5.04935 12.5011C5.96099 12.5125 6.87002 12.6244 7.75822 12.8207C8.22954 11.5297 8.99301 10.3174 10.0497 9.28359H10.0494ZM11.1616 25.6873L12.2747 26.7764L10.8371 28.1831H8.61153L11.1618 25.6873H11.1616ZM5.98729 20.6224L7.10021 21.7115L4.54991 24.2079V22.0288L5.98729 20.6221V20.6224ZM8.57456 23.1547L9.68696 24.2438L4.52257 29.2996L3.40991 28.2104L8.57456 23.1547ZM13.8322 19.0973C12.5924 17.8838 12.2445 16.1279 12.7875 14.6098C12.9549 14.142 13.2067 13.6975 13.5431 13.2978C13.6332 13.191 13.7296 13.0865 13.8322 12.9866C15.5565 11.299 18.351 11.299 20.0751 12.9866C21.2305 14.1171 21.6114 15.7183 21.2187 17.1597C21.0898 17.6328 20.8779 18.0882 20.5823 18.504C20.4342 18.7127 20.2652 18.9113 20.0751 19.0971C18.3513 20.7847 15.5565 20.7847 13.8322 19.0971V19.0973Z" fill="#0700DB"/>
<mask id="mask1_6_542" style="mask-type:luminance" maskUnits="userSpaceOnUse" x="3" y="3" width="27" height="27">
<path d="M15.2955 28.11C16.1558 28.2229 17.0255 28.2474 17.8903 28.1834C17.9228 27.3402 17.833 26.4634 17.6255 25.5772C17.4218 24.7106 17.1049 23.8358 16.6787 22.976C18.5834 23.0484 20.5122 22.3725 21.9665 20.9492C24.7352 18.2389 24.735 13.8451 21.9665 11.1351C19.198 8.4249 14.7093 8.4249 11.9408 11.1351C10.4865 12.5584 9.7962 14.4464 9.86963 16.3112C8.99211 15.8937 8.09791 15.5837 7.21284 15.3844C6.30745 15.181 5.41143 15.0931 4.55005 15.1252C4.48522 15.9719 4.51021 16.8227 4.62531 17.6649C6.97041 17.6045 9.72824 18.7479 11.9588 20.9316C14.1893 23.1152 15.3579 25.8145 15.2957 28.11M10.0493 9.28362C13.8622 5.55127 20.0445 5.55127 23.8574 9.28362C27.6704 13.0165 27.6707 19.0678 23.8574 22.8002C22.8234 23.8128 21.5876 24.5716 20.244 25.0422C20.4445 25.9124 20.559 26.8027 20.5705 27.6945C22.4656 27.1325 24.2512 26.1183 25.7492 24.6517C30.6068 19.8967 30.6068 12.1873 25.7492 7.43236C20.8913 2.67688 13.0157 2.67688 8.1578 7.43236C6.6595 8.89899 5.62366 10.6465 5.04923 12.5011C5.96087 12.5126 6.8699 12.6245 7.7581 12.8207C8.22941 11.5297 8.99289 10.3175 10.0496 9.28362H10.0493ZM11.1614 25.6873L12.2746 26.7764L10.837 28.1832H8.61141L11.1617 25.6873H11.1614ZM5.98716 20.6224L7.10009 21.7115L4.54979 24.2079V22.0289L5.98716 20.6221V20.6224ZM8.57443 23.1547L9.68684 24.2439L4.52245 29.2996L3.40979 28.2104L8.57443 23.1547ZM13.832 19.0974C12.5923 17.8838 12.2444 16.1279 12.7873 14.6098C12.9548 14.1421 13.2066 13.6975 13.543 13.2979C13.6331 13.1911 13.7294 13.0866 13.832 12.9867C15.5564 11.299 18.3509 11.299 20.075 12.9867C21.2303 14.1171 21.6113 15.7183 21.2186 17.1597C21.0897 17.6328 20.8778 18.0883 20.5822 18.504C20.4341 18.7128 20.2651 18.9113 20.075 19.0971C18.3512 20.7847 15.5564 20.7847 13.832 19.0971V19.0974Z" fill="white"/>
</mask>
<g mask="url(#mask1_6_542)">
<path d="M30.6067 2.67688H3.40991V29.2996H30.6067V2.67688Z" fill="#0700DB"/>
</g>
<path fill-rule="evenodd" clip-rule="evenodd" d="M26.6101 5.42445C27.5892 5.42445 28.3829 6.20135 28.3829 7.15999C28.3829 6.20135 29.1765 5.42445 30.1559 5.42445C29.1765 5.42445 28.3829 4.64754 28.3829 3.6889C28.3829 4.64754 27.5892 5.42445 26.6101 5.42445Z" fill="#0700DB"/>
<mask id="mask2_6_542" style="mask-type:luminance" maskUnits="userSpaceOnUse" x="26" y="3" width="5" height="5">
<path d="M26.6101 5.42426C27.5892 5.42426 28.3829 6.20117 28.3829 7.15981C28.3829 6.20117 29.1765 5.42426 30.1559 5.42426C29.1765 5.42426 28.3829 4.64736 28.3829 3.68872C28.3829 4.64736 27.5892 5.42426 26.6101 5.42426Z" fill="white"/>
</mask>
<g mask="url(#mask2_6_542)">
<path d="M30.1559 3.68851H26.6101V7.15959H30.1559V3.68851Z" fill="#0700DB"/>
</g>
<path fill-rule="evenodd" clip-rule="evenodd" d="M8.20337 1.04823C8.79446 1.04823 9.27385 1.51722 9.27385 2.09582C9.27385 1.51722 9.75323 1.04823 10.3443 1.04823C9.75297 1.04823 9.27385 0.578976 9.27385 0.00012207C9.27385 0.578721 8.79446 1.04823 8.20337 1.04823Z" fill="#0700DB"/>
<mask id="mask3_6_542" style="mask-type:luminance" maskUnits="userSpaceOnUse" x="8" y="0" width="3" height="3">
<path d="M8.20337 1.04811C8.79446 1.04811 9.27385 1.5171 9.27385 2.0957C9.27385 1.5171 9.75323 1.04811 10.3443 1.04811C9.75297 1.04811 9.27385 0.578854 9.27385 0C9.27385 0.578599 8.79446 1.04811 8.20337 1.04811Z" fill="white"/>
</mask>
<g mask="url(#mask3_6_542)">
<path d="M10.3443 0H8.20337V2.0957H10.3443V0Z" fill="#0700DB"/>
</g>
<path fill-rule="evenodd" clip-rule="evenodd" d="M31.0198 16.1982C31.6106 16.1982 32.0903 16.6672 32.0903 17.2458C32.0903 16.6672 32.5691 16.1982 33.1605 16.1982C32.5691 16.1982 32.0903 15.7289 32.0903 15.1506C32.0903 15.7287 31.6106 16.1982 31.0198 16.1982Z" fill="#0700DB"/>
<mask id="mask4_6_542" style="mask-type:luminance" maskUnits="userSpaceOnUse" x="31" y="15" width="3" height="3">
<path d="M31.0199 16.1981C31.6107 16.1981 32.0904 16.6671 32.0904 17.2457C32.0904 16.6671 32.5692 16.1981 33.1606 16.1981C32.5692 16.1981 32.0904 15.7288 32.0904 15.1505C32.0904 15.7286 31.6107 16.1981 31.0199 16.1981Z" fill="white"/>
</mask>
<g mask="url(#mask4_6_542)">
<path d="M33.1606 15.1505H31.0199V17.2457H33.1606V15.1505Z" fill="#0700DB"/>
</g>
<path fill-rule="evenodd" clip-rule="evenodd" d="M0.333008 16.6588C0.923841 16.6588 1.40349 17.1278 1.40349 17.7064C1.40349 17.1278 1.88235 16.6588 2.4737 16.6588C1.88235 16.6588 1.40349 16.1896 1.40349 15.6107C1.40349 16.1893 0.923841 16.6588 0.333008 16.6588Z" fill="#0700DB"/>
<mask id="mask5_6_542" style="mask-type:luminance" maskUnits="userSpaceOnUse" x="0" y="15" width="3" height="3">
<path d="M0.333008 16.6588C0.923841 16.6588 1.40349 17.1278 1.40349 17.7064C1.40349 17.1278 1.88235 16.6588 2.4737 16.6588C1.88235 16.6588 1.40349 16.1895 1.40349 15.6107C1.40349 16.1893 0.923841 16.6588 0.333008 16.6588Z" fill="white"/>
</mask>
<g mask="url(#mask5_6_542)">
<path d="M2.4737 15.6107H0.333008V17.7064H2.4737V15.6107Z" fill="#0700DB"/>
</g>
<path fill-rule="evenodd" clip-rule="evenodd" d="M0 20.9506C0.978819 20.9506 1.77302 21.7275 1.77302 22.6861C1.77302 21.7275 2.56644 20.9506 3.54578 20.9506C2.56644 20.9506 1.77302 20.1737 1.77302 19.2151C1.77302 20.1737 0.978819 20.9506 0 20.9506Z" fill="#0700DB"/>
<mask id="mask6_6_542" style="mask-type:luminance" maskUnits="userSpaceOnUse" x="0" y="19" width="4" height="4">
<path d="M0 20.9507C0.978819 20.9507 1.77302 21.7276 1.77302 22.6862C1.77302 21.7276 2.56644 20.9507 3.54578 20.9507C2.56644 20.9507 1.77302 20.1738 1.77302 19.2151C1.77302 20.1738 0.978819 20.9507 0 20.9507Z" fill="white"/>
</mask>
<g mask="url(#mask6_6_542)">
<path d="M3.54578 19.2151H0V22.6862H3.54578V19.2151Z" fill="#0700DB"/>
</g>
</svg>
