<svg fill="none" height="17" viewBox="0 0 17 17" width="17" xmlns="http://www.w3.org/2000/svg"><path d="m12.9737.894737h-.4474v-.447369c0-.248289-.1991-.447368-.4474-.447368-.2482 0-.4473.199079-.4473.447368v.447369h-6.26318v-.447369c0-.248289-.19908-.447368-.44737-.447368s-.44737.199079-.44737.447368v.447369h-.44736c-2.22119 0-4.02632 1.805133-4.02632 4.026313v8.05265c0 2.2212 1.80513 4.0263 4.02632 4.0263h8.94738c2.2212 0 4.0263-1.8051 4.0263-4.0263v-8.05265c0-2.22118-1.8051-4.026313-4.0263-4.026313zm-8.94738.894733h.44736v1.34211c0 .24829.19908.44737.44737.44737s.44737-.19908.44737-.44737v-1.34211h6.26318v1.34211c0 .24829.1991.44737.4473.44737.2483 0 .4474-.19908.4474-.44737v-1.34211h.4474c1.7268 0 3.1316 1.40474 3.1316 3.13158v.44737h-15.210563v-.44737c0-1.72684 1.404733-3.13158 3.131583-3.13158zm8.94738 14.31583h-8.94738c-1.72685 0-3.131583-1.4048-3.131583-3.1316v-6.71054h15.210563v6.71054c0 1.7268-1.4048 3.1316-3.1316 3.1316zm0-6.71056c0 .49434-.4004.89476-.8948.89476-.4943 0-.8947-.40042-.8947-.89476 0-.49435.4004-.89474.8947-.89474.4944 0 .8948.40039.8948.89474zm-3.57896 0c0 .49434-.4004.89476-.89474.89476s-.89474-.40042-.89474-.89476c0-.49435.4004-.89474.89474-.89474s.89474.40039.89474.89474zm-3.57895 0c0 .49434-.4004.89476-.89474.89476s-.89473-.40042-.89473-.89476c0-.49435.40039-.89474.89473-.89474s.89474.40039.89474.89474zm7.15791 3.57896c0 .4943-.4004.8947-.8948.8947-.4943 0-.8947-.4004-.8947-.8947 0-.4944.4004-.8948.8947-.8948.4944 0 .8948.4004.8948.8948zm-3.57896 0c0 .4943-.4004.8947-.89474.8947s-.89474-.4004-.89474-.8947c0-.4944.4004-.8948.89474-.8948s.89474.4004.89474.8948zm-3.57895 0c0 .4943-.4004.8947-.89474.8947s-.89473-.4004-.89473-.8947c0-.4944.40039-.8948.89473-.8948s.89474.4004.89474.8948z" fill="#fff"/></svg>