<svg width="15" height="15" viewBox="0 0 15 15" fill="none" xmlns="http://www.w3.org/2000/svg">
<path d="M7.5 0C3.36513 0 0 3.36513 0 7.5C0 11.6349 3.36513 15 7.5 15C11.6349 15 15 11.6349 15 7.5C15 3.36513 11.6349 0 7.5 0ZM7.5 14.2105C3.79934 14.2105 0.789474 11.2007 0.789474 7.5C0.789474 3.79934 3.79934 0.789474 7.5 0.789474C11.2007 0.789474 14.2105 3.79934 14.2105 7.5C14.2105 11.2007 11.2007 14.2105 7.5 14.2105ZM8.09211 10.6579C8.09211 10.9855 7.82763 11.25 7.5 11.25C7.17237 11.25 6.9079 10.9855 6.9079 10.6579C6.9079 10.3303 7.17237 10.0658 7.5 10.0658C7.82763 10.0658 8.09211 10.3303 8.09211 10.6579ZM7.10526 7.5V4.34211C7.10526 4.12303 7.28092 3.94737 7.5 3.94737C7.71908 3.94737 7.89474 4.12303 7.89474 4.34211V7.5C7.89474 7.71908 7.71908 7.89474 7.5 7.89474C7.28092 7.89474 7.10526 7.71908 7.10526 7.5Z" fill="#555555"/>
</svg>
