<svg width="19" height="15" viewBox="0 0 19 15" fill="none" xmlns="http://www.w3.org/2000/svg">
<path d="M14.5 0H4.5C2.0175 0 0 2.0175 0 4.5V10.5C0 12.9825 2.0175 15 4.5 15H14.5C16.9825 15 19 12.9825 19 10.5V4.5C19 2.0175 16.9825 0 14.5 0ZM4.5 1H14.5C16.43 1 18 2.57 18 4.5V5H1V4.5C1 2.57 2.57 1 4.5 1ZM14.5 14H4.5C2.57 14 1 12.43 1 10.5V6H18V10.5C18 12.43 16.43 14 14.5 14ZM8 10.5C8 10.7775 7.7775 11 7.5 11H4.5C4.2225 11 4 10.7775 4 10.5C4 10.2225 4.2225 10 4.5 10H7.5C7.7775 10 8 10.2225 8 10.5Z" fill="white"/>
</svg>
