<svg width="25" height="25" viewBox="0 0 25 25" fill="current" xmlns="http://www.w3.org/2000/svg">
<path d="M19.7368 12.5C19.7368 13.227 19.148 13.8158 18.4211 13.8158C17.6941 13.8158 17.1053 13.227 17.1053 12.5C17.1053 11.773 17.6941 11.1842 18.4211 11.1842C19.148 11.1842 19.7368 11.773 19.7368 12.5ZM12.5 11.1842C11.773 11.1842 11.1842 11.773 11.1842 12.5C11.1842 13.227 11.773 13.8158 12.5 13.8158C13.227 13.8158 13.8158 13.227 13.8158 12.5C13.8158 11.773 13.227 11.1842 12.5 11.1842ZM6.57895 11.1842C5.85197 11.1842 5.26316 11.773 5.26316 12.5C5.26316 13.227 5.85197 13.8158 6.57895 13.8158C7.30592 13.8158 7.89474 13.227 7.89474 12.5C7.89474 11.773 7.30592 11.1842 6.57895 11.1842ZM25 12.5C25 19.3914 19.3914 25 12.5 25C5.60855 25 0 19.3914 0 12.5C0 5.60855 5.60855 0 12.5 0C19.3914 0 25 5.60855 25 12.5ZM23.6842 12.5C23.6842 6.33224 18.6678 1.31579 12.5 1.31579C6.33224 1.31579 1.31579 6.33224 1.31579 12.5C1.31579 18.6678 6.33224 23.6842 12.5 23.6842C18.6678 23.6842 23.6842 18.6678 23.6842 12.5Z" fill="current"/>
</svg>
