<svg width="33" height="33" viewBox="0 0 33 33" fill="none" xmlns="http://www.w3.org/2000/svg">
<mask id="mask0_277_260" style="mask-type:luminance" maskUnits="userSpaceOnUse" x="16" y="14" width="12" height="11">
<path d="M27.0303 16.7415C27.0303 15.9888 26.9623 15.2656 26.8346 14.5718H16.7148V18.6744H22.4972C22.2479 20.0007 21.4913 21.1232 20.353 21.8759V24.5368H23.8253C25.8574 22.6899 27.0291 19.9713 27.0291 16.7403L27.0303 16.7415Z" fill="white"/>
</mask>
<g mask="url(#mask0_277_260)">
<path d="M33.0001 8.67871H10.7451V30.4298H33.0001V8.67871Z" fill="#3E82F1"/>
</g>
<mask id="mask1_277_260" style="mask-type:luminance" maskUnits="userSpaceOnUse" x="7" y="18" width="17" height="10">
<path d="M16.7152 27.107C19.616 27.107 22.049 26.1576 23.8269 24.5368L20.3546 21.8759C19.3928 22.512 18.1614 22.8889 16.7164 22.8889C13.9183 22.8889 11.5485 21.0231 10.7037 18.5154H7.11328V21.2634C8.88165 24.73 12.515 27.107 16.7152 27.107Z" fill="white"/>
</mask>
<g mask="url(#mask1_277_260)">
<path d="M29.7966 12.6223H1.14355V33H29.7966V12.6223Z" fill="#32A753"/>
</g>
<mask id="mask2_277_260" style="mask-type:luminance" maskUnits="userSpaceOnUse" x="5" y="11" width="6" height="11">
<path d="M10.7023 18.5154C10.4875 17.8793 10.3658 17.1997 10.3658 16.5C10.3658 15.8003 10.4875 15.1207 10.7023 14.4846V11.7366H7.11187C6.38399 13.1689 5.96875 14.7885 5.96875 16.5C5.96875 18.2115 6.38399 19.8311 7.11187 21.2634L10.7023 18.5154Z" fill="white"/>
</mask>
<g mask="url(#mask2_277_260)">
<path d="M16.6718 5.84351H0V27.1564H16.6718V5.84351Z" fill="#F9BB00"/>
</g>
<mask id="mask3_277_260" style="mask-type:luminance" maskUnits="userSpaceOnUse" x="7" y="5" width="17" height="10">
<path d="M16.7152 10.1111C18.2927 10.1111 19.709 10.6459 20.8223 11.6977L23.9044 8.65524C22.043 6.94375 19.6112 5.89307 16.7152 5.89307C12.515 5.89307 8.88046 8.27007 7.11328 11.7366L10.7037 14.4847C11.5485 11.9781 13.9171 10.1111 16.7164 10.1111H16.7152Z" fill="white"/>
</mask>
<g mask="url(#mask3_277_260)">
<path d="M29.8742 0H1.14355V20.3776H29.8742V0Z" fill="#E74133"/>
</g>
</svg>
