<svg width="24" height="22" viewBox="0 0 24 22" fill="none" xmlns="http://www.w3.org/2000/svg">
<path fill-rule="evenodd" clip-rule="evenodd" d="M1.87669 3.27988C3.05985 3.27988 4.01893 4.21887 4.01893 5.37665C4.01893 4.21887 4.97801 3.27988 6.16098 3.27988C4.97801 3.27988 4.01893 2.34126 4.01893 1.18311C4.01893 2.34126 3.05985 3.27988 1.87669 3.27988Z" fill="#E5E5E5"/>
<mask id="mask0_899_168" style="mask-type:luminance" maskUnits="userSpaceOnUse" x="1" y="1" width="6" height="5">
<path d="M1.87669 3.27988C3.05985 3.27988 4.01893 4.21887 4.01893 5.37665C4.01893 4.21887 4.97801 3.27988 6.16098 3.27988C4.97801 3.27988 4.01893 2.34126 4.01893 1.18311C4.01893 2.34126 3.05985 3.27988 1.87669 3.27988Z" fill="white"/>
</mask>
<g mask="url(#mask0_899_168)">
<path d="M6.16098 1.18311H1.87669V5.37665H6.16098V1.18311Z" fill="#E5E5E5"/>
</g>
<path fill-rule="evenodd" clip-rule="evenodd" d="M11.0702 20.3443C11.6929 20.426 12.3223 20.4437 12.9482 20.3974C12.9718 19.7871 12.9068 19.1525 12.7565 18.5111C12.6092 17.8839 12.3798 17.2508 12.0713 16.6285C13.4499 16.6809 14.8458 16.1917 15.8984 15.1616C17.9023 13.2 17.9021 10.02 15.8984 8.05862C13.8947 6.09707 10.646 6.09707 8.64226 8.05862C7.5897 9.08874 7.09009 10.4552 7.14324 11.8048C6.50812 11.5026 5.86095 11.2783 5.22037 11.134C4.56509 10.9868 3.9166 10.9232 3.29317 10.9464C3.24624 11.5593 3.26433 12.175 3.34763 12.7846C5.04491 12.7408 7.0409 13.5684 8.65526 15.1488C10.2696 16.7292 11.1154 18.6829 11.0704 20.3443M7.27327 6.71857C10.0329 4.01727 14.5074 4.01727 17.267 6.71857C20.0266 9.42025 20.0268 13.7999 17.267 16.5012C16.5186 17.2342 15.6242 17.7833 14.6517 18.1239C14.7968 18.7537 14.8798 19.3981 14.888 20.0436C16.2597 19.6368 17.5519 18.9028 18.6362 17.8413C22.1519 14.3998 22.1519 8.82014 18.6362 5.37871C15.1202 1.93691 9.42022 1.93691 5.90429 5.37871C4.81989 6.4402 4.07019 7.70497 3.65445 9.04723C4.31425 9.05553 4.97217 9.13652 5.61501 9.27857C5.95612 8.34419 6.50869 7.46681 7.27346 6.71857H7.27327ZM8.07819 18.5908L8.88386 19.3791L7.84337 20.3972H6.23259L8.07838 18.5908H8.07819ZM4.33328 14.9251L5.13877 15.7133L3.29298 17.5201V15.943L4.33328 14.9249V14.9251ZM6.20583 16.7578L7.01094 17.5461L3.27319 21.2052L2.4679 20.417L6.20583 16.7578ZM10.011 13.8213C9.11379 12.943 8.862 11.6722 9.25494 10.5734C9.37612 10.2349 9.55836 9.91317 9.80186 9.62391C9.86706 9.54661 9.93679 9.47098 10.011 9.39866C11.259 8.17724 13.2816 8.17724 14.5294 9.39866C15.3656 10.2168 15.6413 11.3757 15.3571 12.4189C15.2638 12.7613 15.1104 13.091 14.8965 13.3919C14.7893 13.5429 14.667 13.6867 14.5294 13.8211C13.2818 15.0426 11.259 15.0426 10.011 13.8211V13.8213Z" fill="#E5E5E5"/>
<mask id="mask1_899_168" style="mask-type:luminance" maskUnits="userSpaceOnUse" x="2" y="2" width="20" height="20">
<path d="M11.0701 20.3443C11.6928 20.426 12.3222 20.4437 12.9481 20.3974C12.9717 19.7871 12.9067 19.1525 12.7565 18.5111C12.6091 17.8839 12.3797 17.2508 12.0712 16.6285C13.4498 16.6809 14.8457 16.1917 15.8983 15.1616C17.9022 13.2 17.902 10.02 15.8983 8.05862C13.8946 6.09707 10.6459 6.09707 8.64216 8.05862C7.58961 9.08874 7.09 10.4552 7.14315 11.8048C6.50803 11.5026 5.86086 11.2783 5.22028 11.134C4.565 10.9868 3.9165 10.9232 3.29308 10.9464C3.24615 11.5593 3.26424 12.175 3.34754 12.7846C5.04482 12.7408 7.04081 13.5684 8.65517 15.1488C10.2695 16.7292 11.1153 18.6829 11.0703 20.3443M7.27318 6.71857C10.0328 4.01727 14.5073 4.01727 17.2669 6.71857C20.0265 9.42025 20.0267 13.7999 17.2669 16.5012C16.5185 17.2342 15.6241 17.7833 14.6516 18.1239C14.7967 18.7537 14.8797 19.3981 14.888 20.0436C16.2596 19.6368 17.5518 18.9028 18.6361 17.8413C22.1518 14.3998 22.1518 8.82014 18.6361 5.37871C15.1201 1.93691 9.42013 1.93691 5.9042 5.37871C4.8198 6.4402 4.0701 7.70497 3.65435 9.04723C4.31416 9.05553 4.97207 9.13652 5.61491 9.27857C5.95603 8.34419 6.5086 7.46681 7.27337 6.71857H7.27318ZM8.0781 18.5908L8.88377 19.3791L7.84328 20.3972H6.2325L8.07829 18.5908H8.0781ZM4.33319 14.9251L5.13867 15.7133L3.29289 17.5201V15.943L4.33319 14.9249V14.9251ZM6.20574 16.7578L7.01085 17.5461L3.2731 21.2052L2.4678 20.417L6.20574 16.7578ZM10.011 13.8213C9.11369 12.943 8.86191 11.6722 9.25485 10.5734C9.37603 10.2349 9.55827 9.91317 9.80176 9.62391C9.86697 9.54661 9.9367 9.47098 10.011 9.39866C11.2589 8.17724 13.2815 8.17724 14.5293 9.39866C15.3655 10.2168 15.6412 11.3757 15.357 12.4189C15.2637 12.7613 15.1103 13.091 14.8964 13.3919C14.7892 13.5429 14.6669 13.6867 14.5293 13.8211C13.2817 15.0426 11.2589 15.0426 10.011 13.8211V13.8213Z" fill="white"/>
</mask>
<g mask="url(#mask1_899_168)">
<path d="M22.1517 1.93652H2.46791V21.2048H22.1517V1.93652Z" fill="#E5E5E5"/>
</g>
<path fill-rule="evenodd" clip-rule="evenodd" d="M19.2592 3.92603C19.9678 3.92603 20.5423 4.48832 20.5423 5.18214C20.5423 4.48832 21.1167 3.92603 21.8255 3.92603C21.1167 3.92603 20.5423 3.36374 20.5423 2.66992C20.5423 3.36374 19.9678 3.92603 19.2592 3.92603Z" fill="#E5E5E5"/>
<mask id="mask2_899_168" style="mask-type:luminance" maskUnits="userSpaceOnUse" x="19" y="2" width="3" height="4">
<path d="M19.2592 3.92603C19.9678 3.92603 20.5422 4.48832 20.5422 5.18214C20.5422 4.48832 21.1167 3.92603 21.8255 3.92603C21.1167 3.92603 20.5422 3.36374 20.5422 2.66992C20.5422 3.36374 19.9678 3.92603 19.2592 3.92603Z" fill="white"/>
</mask>
<g mask="url(#mask2_899_168)">
<path d="M21.8255 2.66992H19.2592V5.18214H21.8255V2.66992Z" fill="#E5E5E5"/>
</g>
<path fill-rule="evenodd" clip-rule="evenodd" d="M5.9373 0.758572C6.36511 0.758572 6.71206 1.09801 6.71206 1.51677C6.71206 1.09801 7.05902 0.758572 7.48683 0.758572C7.05883 0.758572 6.71206 0.418948 6.71206 0C6.71206 0.418764 6.36511 0.758572 5.9373 0.758572Z" fill="#E5E5E5"/>
<mask id="mask3_899_168" style="mask-type:luminance" maskUnits="userSpaceOnUse" x="5" y="0" width="3" height="2">
<path d="M5.93726 0.758572C6.36506 0.758572 6.71202 1.09801 6.71202 1.51677C6.71202 1.09801 7.05898 0.758572 7.48678 0.758572C7.05879 0.758572 6.71202 0.418948 6.71202 0C6.71202 0.418764 6.36506 0.758572 5.93726 0.758572Z" fill="white"/>
</mask>
<g mask="url(#mask3_899_168)">
<path d="M7.48678 0H5.93726V1.51677H7.48678V0Z" fill="#E5E5E5"/>
</g>
<path fill-rule="evenodd" clip-rule="evenodd" d="M22.4507 11.723C22.8783 11.723 23.2255 12.0625 23.2255 12.4812C23.2255 12.0625 23.572 11.723 24 11.723C23.572 11.723 23.2255 11.3834 23.2255 10.9648C23.2255 11.3832 22.8783 11.723 22.4507 11.723Z" fill="#E5E5E5"/>
<mask id="mask4_899_168" style="mask-type:luminance" maskUnits="userSpaceOnUse" x="22" y="10" width="2" height="3">
<path d="M22.4507 11.723C22.8783 11.723 23.2255 12.0625 23.2255 12.4812C23.2255 12.0625 23.5721 11.723 24.0001 11.723C23.5721 11.723 23.2255 11.3834 23.2255 10.9648C23.2255 11.3832 22.8783 11.723 22.4507 11.723Z" fill="white"/>
</mask>
<g mask="url(#mask4_899_168)">
<path d="M24.0001 10.9648H22.4507V12.4812H24.0001V10.9648Z" fill="#E5E5E5"/>
</g>
<path fill-rule="evenodd" clip-rule="evenodd" d="M0.241058 12.0569C0.668676 12.0569 1.01582 12.3963 1.01582 12.8151C1.01582 12.3963 1.3624 12.0569 1.7904 12.0569C1.3624 12.0569 1.01582 11.7173 1.01582 11.2983C1.01582 11.7171 0.668676 12.0569 0.241058 12.0569Z" fill="#E5E5E5"/>
<mask id="mask5_899_168" style="mask-type:luminance" maskUnits="userSpaceOnUse" x="0" y="11" width="2" height="2">
<path d="M0.241043 12.0569C0.668661 12.0569 1.01581 12.3963 1.01581 12.8151C1.01581 12.3963 1.36239 12.0569 1.79038 12.0569C1.36239 12.0569 1.01581 11.7173 1.01581 11.2983C1.01581 11.7171 0.668661 12.0569 0.241043 12.0569Z" fill="white"/>
</mask>
<g mask="url(#mask5_899_168)">
<path d="M1.79038 11.2983H0.241043V12.8151H1.79038V11.2983Z" fill="#E5E5E5"/>
</g>
<path fill-rule="evenodd" clip-rule="evenodd" d="M0 15.1628C0.708425 15.1628 1.28323 15.7251 1.28323 16.419C1.28323 15.7251 1.85747 15.1628 2.56627 15.1628C1.85747 15.1628 1.28323 14.6006 1.28323 13.9067C1.28323 14.6006 0.708425 15.1628 0 15.1628Z" fill="#E5E5E5"/>
<mask id="mask6_899_168" style="mask-type:luminance" maskUnits="userSpaceOnUse" x="0" y="13" width="3" height="4">
<path d="M0 15.1628C0.708425 15.1628 1.28323 15.7251 1.28323 16.419C1.28323 15.7251 1.85747 15.1628 2.56627 15.1628C1.85747 15.1628 1.28323 14.6006 1.28323 13.9067C1.28323 14.6006 0.708425 15.1628 0 15.1628Z" fill="white"/>
</mask>
<g mask="url(#mask6_899_168)">
<path d="M2.56627 13.9067H0V16.419H2.56627V13.9067Z" fill="#E5E5E5"/>
</g>
</svg>
