<svg width="35" height="30" viewBox="0 0 35 30" fill="none" xmlns="http://www.w3.org/2000/svg">
<path fill-rule="evenodd" clip-rule="evenodd" d="M3.51282 4.78379C5.14757 4.78379 6.47271 6.08118 6.47271 7.68087C6.47271 6.08118 7.79785 4.78379 9.43234 4.78379C7.79785 4.78379 6.47271 3.48691 6.47271 1.88672C6.47271 3.48691 5.14757 4.78379 3.51282 4.78379Z" fill="#0700DB"/>
<mask id="mask0_459_229" style="mask-type:luminance" maskUnits="userSpaceOnUse" x="3" y="1" width="7" height="7">
<path d="M3.51282 4.78379C5.14757 4.78379 6.47271 6.08118 6.47271 7.68087C6.47271 6.08118 7.79785 4.78379 9.43234 4.78379C7.79785 4.78379 6.47271 3.48691 6.47271 1.88672C6.47271 3.48691 5.14757 4.78379 3.51282 4.78379Z" fill="white"/>
</mask>
<g mask="url(#mask0_459_229)">
<path d="M9.43234 1.88672H3.51282V7.68087H9.43234V1.88672Z" fill="#0700DB"/>
</g>
<path fill-rule="evenodd" clip-rule="evenodd" d="M16.2153 28.3622C17.0757 28.4751 17.9454 28.4996 18.8101 28.4356C18.8427 27.5924 18.7528 26.7156 18.5453 25.8293C18.3417 24.9627 18.0248 24.0879 17.5985 23.2282C19.5033 23.3006 21.432 22.6246 22.8863 21.2013C25.6551 18.4911 25.6548 14.0973 22.8863 11.3873C20.1178 8.67707 15.6292 8.67707 12.8607 11.3873C11.4064 12.8106 10.7161 14.6986 10.7895 16.5633C9.91197 16.1458 9.01778 15.8359 8.1327 15.6366C7.22731 15.4332 6.3313 15.3452 5.46991 15.3773C5.40508 16.2241 5.43007 17.0749 5.54517 17.9171C7.89027 17.8567 10.6481 19.0001 12.8786 21.1837C15.1092 23.3674 16.2778 26.0666 16.2156 28.3622M10.9692 9.53579C14.7821 5.80344 20.9644 5.80344 24.7773 9.53579C28.5903 13.2686 28.5905 19.32 24.7773 23.0523C23.7433 24.065 22.5075 24.8238 21.1638 25.2943C21.3643 26.1645 21.4789 27.0549 21.4904 27.9467C23.3855 27.3847 25.171 26.3705 26.6691 24.9038C31.5267 20.1489 31.5267 12.4395 26.6691 7.68453C21.8112 2.92905 13.9356 2.92905 9.07767 7.68453C7.57936 9.15116 6.54352 10.8987 5.96909 12.7533C6.88073 12.7647 7.78976 12.8766 8.67796 13.0729C9.14927 11.7819 9.91275 10.5696 10.9694 9.53579H10.9692ZM12.0813 25.9395L13.1945 27.0286L11.7569 28.4353H9.53127L12.0816 25.9395H12.0813ZM6.90703 20.8745L8.01995 21.9637L5.46965 24.4601V22.281L6.90703 20.8743V20.8745ZM9.4943 23.4069L10.6067 24.496L5.44231 29.5518L4.32965 28.4626L9.4943 23.4069ZM14.7519 19.3495C13.5122 18.136 13.1643 16.3801 13.7072 14.862C13.8746 14.3942 14.1264 13.9497 14.4629 13.55C14.553 13.4432 14.6493 13.3387 14.7519 13.2388C16.4762 11.5512 19.2708 11.5512 20.9948 13.2388C22.1502 14.3693 22.5312 15.9705 22.1385 17.4119C22.0096 17.8849 21.7976 18.3404 21.5021 18.7562C21.3539 18.9649 21.1849 19.1635 20.9948 19.3493C19.271 21.0369 16.4762 21.0369 14.7519 19.3493V19.3495Z" fill="#0700DB"/>
<mask id="mask1_459_229" style="mask-type:luminance" maskUnits="userSpaceOnUse" x="4" y="4" width="27" height="26">
<path d="M16.2152 28.3622C17.0755 28.4751 17.9452 28.4996 18.81 28.4356C18.8426 27.5924 18.7527 26.7156 18.5452 25.8293C18.3416 24.9627 18.0247 24.0879 17.5984 23.2282C19.5032 23.3006 21.4319 22.6246 22.8862 21.2013C25.655 18.4911 25.6547 14.0973 22.8862 11.3873C20.1177 8.67707 15.629 8.67707 12.8605 11.3873C11.4062 12.8106 10.7159 14.6986 10.7894 16.5633C9.91184 16.1458 9.01765 15.8359 8.13258 15.6366C7.22719 15.4332 6.33117 15.3452 5.46979 15.3773C5.40495 16.2241 5.42995 17.0749 5.54505 17.9171C7.89015 17.8567 10.648 19.0001 12.8785 21.1837C15.109 23.3674 16.2777 26.0666 16.2154 28.3622M10.969 9.53579C14.782 5.80344 20.9642 5.80344 24.7772 9.53579C28.5901 13.2686 28.5904 19.32 24.7772 23.0523C23.7432 24.065 22.5073 24.8238 21.1637 25.2943C21.3642 26.1645 21.4788 27.0549 21.4902 27.9467C23.3854 27.3847 25.1709 26.3705 26.6689 24.9038C31.5266 20.1489 31.5266 12.4395 26.6689 7.68453C21.811 2.92905 13.9354 2.92905 9.07754 7.68453C7.57924 9.15116 6.54339 10.8987 5.96897 12.7533C6.8806 12.7647 7.78964 12.8766 8.67784 13.0729C9.14915 11.7819 9.91263 10.5696 10.9693 9.53579H10.969ZM12.0812 25.9395L13.1944 27.0286L11.7567 28.4353H9.53115L12.0814 25.9395H12.0812ZM6.9069 20.8745L8.01983 21.9637L5.46953 24.4601V22.281L6.9069 20.8743V20.8745ZM9.49417 23.4069L10.6066 24.496L5.44219 29.5518L4.32953 28.4626L9.49417 23.4069ZM14.7518 19.3495C13.512 18.136 13.1642 16.3801 13.7071 14.862C13.8745 14.3942 14.1263 13.9497 14.4627 13.55C14.5528 13.4432 14.6492 13.3387 14.7518 13.2388C16.4761 11.5512 19.2706 11.5512 20.9947 13.2388C22.1501 14.3693 22.531 15.9705 22.1384 17.4119C22.0095 17.8849 21.7975 18.3404 21.502 18.7562C21.3538 18.9649 21.1848 19.1635 20.9947 19.3493C19.2709 21.0369 16.4761 21.0369 14.7518 19.3493V19.3495Z" fill="white"/>
</mask>
<g mask="url(#mask1_459_229)">
<path d="M31.5265 2.92896H4.32965V29.5517H31.5265V2.92896Z" fill="#0700DB"/>
</g>
<path fill-rule="evenodd" clip-rule="evenodd" d="M27.5299 5.6767C28.509 5.6767 29.3027 6.45361 29.3027 7.41225C29.3027 6.45361 30.0963 5.6767 31.0757 5.6767C30.0963 5.6767 29.3027 4.8998 29.3027 3.94116C29.3027 4.8998 28.509 5.6767 27.5299 5.6767Z" fill="#0700DB"/>
<mask id="mask2_459_229" style="mask-type:luminance" maskUnits="userSpaceOnUse" x="27" y="3" width="5" height="5">
<path d="M27.5299 5.67646C28.509 5.67646 29.3027 6.45336 29.3027 7.412C29.3027 6.45336 30.0963 5.67646 31.0757 5.67646C30.0963 5.67646 29.3027 4.89956 29.3027 3.94092C29.3027 4.89956 28.509 5.67646 27.5299 5.67646Z" fill="white"/>
</mask>
<g mask="url(#mask2_459_229)">
<path d="M31.0757 3.94067H27.5299V7.41176H31.0757V3.94067Z" fill="#0700DB"/>
</g>
<path fill-rule="evenodd" clip-rule="evenodd" d="M9.12329 1.3003C9.71438 1.3003 10.1938 1.7693 10.1938 2.3479C10.1938 1.7693 10.6732 1.3003 11.2642 1.3003C10.6729 1.3003 10.1938 0.831051 10.1938 0.252197C10.1938 0.830796 9.71438 1.3003 9.12329 1.3003Z" fill="#0700DB"/>
<mask id="mask3_459_229" style="mask-type:luminance" maskUnits="userSpaceOnUse" x="9" y="0" width="3" height="3">
<path d="M9.12323 1.3003C9.71432 1.3003 10.1937 1.7693 10.1937 2.3479C10.1937 1.7693 10.6731 1.3003 11.2642 1.3003C10.6728 1.3003 10.1937 0.831051 10.1937 0.252197C10.1937 0.830796 9.71432 1.3003 9.12323 1.3003Z" fill="white"/>
</mask>
<g mask="url(#mask3_459_229)">
<path d="M11.2642 0.252197H9.12323V2.3479H11.2642V0.252197Z" fill="#0700DB"/>
</g>
<path fill-rule="evenodd" clip-rule="evenodd" d="M31.9396 16.4504C32.5304 16.4504 33.0101 16.9194 33.0101 17.498C33.0101 16.9194 33.4889 16.4504 34.0803 16.4504C33.4889 16.4504 33.0101 15.9812 33.0101 15.4028C33.0101 15.9809 32.5304 16.4504 31.9396 16.4504Z" fill="#0700DB"/>
<mask id="mask4_459_229" style="mask-type:luminance" maskUnits="userSpaceOnUse" x="31" y="15" width="4" height="3">
<path d="M31.9397 16.4504C32.5305 16.4504 33.0102 16.9194 33.0102 17.498C33.0102 16.9194 33.489 16.4504 34.0804 16.4504C33.489 16.4504 33.0102 15.9812 33.0102 15.4028C33.0102 15.9809 32.5305 16.4504 31.9397 16.4504Z" fill="white"/>
</mask>
<g mask="url(#mask4_459_229)">
<path d="M34.0804 15.4028H31.9397V17.498H34.0804V15.4028Z" fill="#0700DB"/>
</g>
<path fill-rule="evenodd" clip-rule="evenodd" d="M1.25293 16.9109C1.84376 16.9109 2.32341 17.3799 2.32341 17.9585C2.32341 17.3799 2.80227 16.9109 3.39362 16.9109C2.80227 16.9109 2.32341 16.4416 2.32341 15.8628C2.32341 16.4414 1.84376 16.9109 1.25293 16.9109Z" fill="#0700DB"/>
<mask id="mask5_459_229" style="mask-type:luminance" maskUnits="userSpaceOnUse" x="1" y="15" width="3" height="3">
<path d="M1.25287 16.9109C1.8437 16.9109 2.32335 17.3799 2.32335 17.9585C2.32335 17.3799 2.80221 16.9109 3.39356 16.9109C2.80221 16.9109 2.32335 16.4416 2.32335 15.8628C2.32335 16.4414 1.8437 16.9109 1.25287 16.9109Z" fill="white"/>
</mask>
<g mask="url(#mask5_459_229)">
<path d="M3.39356 15.8628H1.25287V17.9585H3.39356V15.8628Z" fill="#0700DB"/>
</g>
<path fill-rule="evenodd" clip-rule="evenodd" d="M0.9198 21.2028C1.89862 21.2028 2.69282 21.9797 2.69282 22.9384C2.69282 21.9797 3.48624 21.2028 4.46558 21.2028C3.48624 21.2028 2.69282 20.4259 2.69282 19.4673C2.69282 20.4259 1.89862 21.2028 0.9198 21.2028Z" fill="#0700DB"/>
<mask id="mask6_459_229" style="mask-type:luminance" maskUnits="userSpaceOnUse" x="0" y="19" width="5" height="4">
<path d="M0.9198 21.2028C1.89862 21.2028 2.69282 21.9797 2.69282 22.9384C2.69282 21.9797 3.48624 21.2028 4.46558 21.2028C3.48624 21.2028 2.69282 20.4259 2.69282 19.4673C2.69282 20.4259 1.89862 21.2028 0.9198 21.2028Z" fill="white"/>
</mask>
<g mask="url(#mask6_459_229)">
<path d="M4.46558 19.4673H0.9198V22.9384H4.46558V19.4673Z" fill="#0700DB"/>
</g>
</svg>
