<svg width="13" height="14" viewBox="0 0 13 14" fill="none" xmlns="http://www.w3.org/2000/svg">
<g id="Group 54">
<path id="Vector" d="M6.5 0.0683594C2.91645 0.0683594 0 2.98481 0 6.56836C0 10.1519 2.91645 13.0684 6.5 13.0684C10.0836 13.0684 13 10.1519 13 6.56836C13 2.98481 10.0836 0.0683594 6.5 0.0683594ZM6.5 12.3841C3.29276 12.3841 0.684211 9.7756 0.684211 6.56836C0.684211 3.36112 3.29276 0.75257 6.5 0.75257C9.70724 0.75257 12.3158 3.36112 12.3158 6.56836C12.3158 9.7756 9.70724 12.3841 6.5 12.3841ZM7.01316 9.3052C7.01316 9.58915 6.78395 9.81836 6.5 9.81836C6.21605 9.81836 5.98684 9.58915 5.98684 9.3052C5.98684 9.02125 6.21605 8.79204 6.5 8.79204C6.78395 8.79204 7.01316 9.02125 7.01316 9.3052ZM6.15789 6.56836V3.83152C6.15789 3.64165 6.31013 3.48941 6.5 3.48941C6.68987 3.48941 6.84211 3.64165 6.84211 3.83152V6.56836C6.84211 6.75823 6.68987 6.91046 6.5 6.91046C6.31013 6.91046 6.15789 6.75823 6.15789 6.56836Z" fill="#555555"/>
</g>
</svg>
