<svg width="16" height="17" viewBox="0 0 16 17" fill="none" xmlns="http://www.w3.org/2000/svg">
<path d="M15.7564 11.8776L14.7142 10.2268C14.319 9.60053 14.112 8.88697 14.112 8.15776V5.80684C14.112 2.60592 11.3712 0 8 0C4.62878 0 1.88805 2.60368 1.88805 5.80684V8.15776C1.88805 8.88697 1.68102 9.60053 1.28579 10.2268L0.24361 11.8776C-0.0739858 12.3809 -0.0810426 12.9871 0.222438 13.4993C0.525918 14.0116 1.07877 14.3158 1.69749 14.3158H5.70861C5.67803 14.4634 5.64744 14.6111 5.64744 14.7632C5.64744 15.9957 6.70374 17 8 17C9.29626 17 10.3526 15.9957 10.3526 14.7632C10.3526 14.6111 10.322 14.4634 10.2914 14.3158H14.3025C14.9212 14.3158 15.4717 14.0093 15.7776 13.4993C16.081 12.9871 16.074 12.3832 15.7564 11.8799V11.8776ZM9.41154 14.7632C9.41154 15.5036 8.7787 16.1053 8 16.1053C7.2213 16.1053 6.58846 15.5036 6.58846 14.7632C6.58846 14.6088 6.62611 14.4589 6.68022 14.3158H9.31978C9.37389 14.4589 9.41154 14.6088 9.41154 14.7632ZM14.9589 13.0587C14.8224 13.2868 14.5778 13.4211 14.3025 13.4211H1.69984C1.4246 13.4211 1.17993 13.2846 1.04348 13.0587C0.909383 12.8305 0.911737 12.5621 1.05289 12.3384L2.09507 10.6876C2.57735 9.92263 2.83143 9.05026 2.83143 8.16V5.80908C2.83143 3.10026 5.15105 0.896974 8.00235 0.896974C10.8537 0.896974 13.1733 3.10026 13.1733 5.80908V8.16C13.1733 9.05026 13.4274 9.92487 13.9096 10.6876L14.9518 12.3384C15.093 12.5621 15.0977 12.8305 14.9612 13.0587H14.9589Z" fill="#969696"/>
</svg>
