<svg width="25" height="23" viewBox="0 0 25 23" fill="none" xmlns="http://www.w3.org/2000/svg">
<g clip-path="url(#clip0_277_229)">
<path d="M12.5009 0C5.59595 0 0 4.42954 0 9.8969C0 13.4549 2.37155 16.5718 5.92974 18.3167C5.6676 19.2933 4.98252 21.8572 4.84621 22.405C4.67669 23.0858 5.09437 23.077 5.36875 22.895C5.58371 22.7515 8.79413 20.5656 10.1783 19.6223C10.9297 19.7343 11.7057 19.7938 12.4991 19.7938C19.4023 19.7938 25 15.3643 25 9.89865C25 4.43304 19.4041 0 12.5009 0Z" fill="#371C1D"/>
<path d="M3.78001 8.07506H5.06628C5.06628 8.07506 5.07501 11.6138 5.06628 12.4381C5.06802 13.0401 6.40497 13.0489 6.40322 12.4468L6.40846 8.12056C6.40846 8.12056 6.84013 8.12406 7.68949 8.12406C8.48991 8.12406 8.48991 6.86398 7.68949 6.86398C6.7877 6.86398 3.77652 6.83948 3.77652 6.83948C3.02154 6.83948 3.02328 8.07506 3.77652 8.07506" fill="#371C1D"/>
<mask id="mask0_277_229" style="mask-type:luminance" maskUnits="userSpaceOnUse" x="3" y="6" width="6" height="7">
<path d="M3.78001 8.07506H5.06628C5.06628 8.07506 5.07501 11.6138 5.06628 12.4381C5.06802 13.0401 6.40497 13.0489 6.40322 12.4468L6.40846 8.12056C6.40846 8.12056 6.84013 8.12406 7.68949 8.12406C8.48991 8.12406 8.48991 6.86398 7.68949 6.86398C6.7877 6.86398 3.77652 6.83948 3.77652 6.83948C3.02154 6.83948 3.02328 8.07506 3.77652 8.07506" fill="white"/>
</mask>
<g mask="url(#mask0_277_229)">
<path d="M8.49181 6.83948H3.02344V13.0489H8.49181V6.83948Z" fill="#371C1D"/>
</g>
<path d="M9.93732 8.30257L10.6539 10.5497H9.16137L9.93732 8.30257ZM9.13515 7.25075C8.81883 7.94904 7.67412 11.2463 7.29489 12.1213C7.02051 12.7531 8.20366 13.2694 8.47804 12.6376L8.73494 11.7363H11.089C11.089 11.7363 11.0086 11.773 11.3215 12.5991C11.5749 13.2676 12.7965 12.8039 12.5431 12.1353C12.1813 11.1798 10.9317 7.73903 10.7028 7.2525C10.5979 7.02673 10.2204 6.86572 9.85518 6.86572C9.55284 6.86572 9.25749 6.97598 9.1334 7.2525" fill="#371C1D"/>
<mask id="mask1_277_229" style="mask-type:luminance" maskUnits="userSpaceOnUse" x="7" y="6" width="6" height="7">
<path d="M9.93732 8.30257L10.6539 10.5497H9.16137L9.93732 8.30257ZM9.13515 7.25075C8.81883 7.94904 7.67412 11.2463 7.29489 12.1213C7.02051 12.7531 8.20366 13.2694 8.47804 12.6376L8.73494 11.7363H11.089C11.089 11.7363 11.0086 11.773 11.3215 12.5991C11.5749 13.2676 12.7965 12.8039 12.5431 12.1353C12.1813 11.1798 10.9317 7.73903 10.7028 7.2525C10.5979 7.02673 10.2204 6.86572 9.85518 6.86572C9.55284 6.86572 9.25749 6.97598 9.1334 7.2525" fill="white"/>
</mask>
<g mask="url(#mask1_277_229)">
<path d="M12.7982 6.86401H7.02051V13.2694H12.7982V6.86401Z" fill="#371C1D"/>
</g>
<path d="M12.9949 7.45726C12.9967 8.57733 13.0019 12.1896 13.0019 12.1896C13.0019 12.1896 12.8988 12.9071 13.5122 12.9071C14.1256 12.9071 15.4905 12.9001 16.0952 12.9001C16.6999 12.9001 16.6964 11.612 16.0917 11.612C15.487 11.612 14.3825 11.605 14.3825 11.605C14.3825 11.605 14.3878 8.26406 14.386 7.45376C14.386 7.06174 14.0383 6.86572 13.6905 6.86572C13.3427 6.86572 12.9932 7.06349 12.9932 7.45726" fill="#371C1D"/>
<mask id="mask2_277_229" style="mask-type:luminance" maskUnits="userSpaceOnUse" x="12" y="6" width="5" height="7">
<path d="M12.9949 7.45726C12.9967 8.57733 13.0019 12.1896 13.0019 12.1896C13.0019 12.1896 12.8988 12.9071 13.5122 12.9071C14.1256 12.9071 15.4905 12.9001 16.0952 12.9001C16.6999 12.9001 16.6964 11.612 16.0917 11.612C15.487 11.612 14.3825 11.605 14.3825 11.605C14.3825 11.605 14.3878 8.26406 14.386 7.45376C14.386 7.06174 14.0383 6.86572 13.6905 6.86572C13.3427 6.86572 12.9932 7.06349 12.9932 7.45726" fill="white"/>
</mask>
<g mask="url(#mask2_277_229)">
<path d="M16.7013 6.86572H12.8984V12.9071H16.7013V6.86572Z" fill="#371C1D"/>
</g>
<path d="M16.8624 7.27875C16.8764 7.77053 16.8467 12.2141 16.8467 12.5431C16.8467 13.0629 18.1679 13.0611 18.1679 12.5431C18.1679 11.9393 18.1679 10.7947 18.1679 10.7947L18.5559 10.4832L20.2511 12.8004C20.5936 13.2536 21.6737 12.4346 21.3311 11.9813L19.5293 9.60465C19.5293 9.60465 20.7527 8.27981 21.2333 7.80028C21.5146 7.52027 20.6443 6.64171 20.3629 6.92348C20.0903 7.19474 18.1749 9.11462 18.1749 9.11462C18.1749 9.11462 18.1924 7.90879 18.1749 7.242C18.1679 6.98823 17.8586 6.86572 17.5405 6.86572C17.2015 6.86572 16.8537 7.00573 16.8607 7.277" fill="#371C1D"/>
<mask id="mask3_277_229" style="mask-type:luminance" maskUnits="userSpaceOnUse" x="16" y="6" width="6" height="7">
<path d="M16.8624 7.27875C16.8764 7.77053 16.8467 12.2141 16.8467 12.5431C16.8467 13.0629 18.1679 13.0611 18.1679 12.5431C18.1679 11.9393 18.1679 10.7947 18.1679 10.7947L18.5559 10.4832L20.2511 12.8004C20.5936 13.2536 21.6737 12.4346 21.3311 11.9813L19.5293 9.60465C19.5293 9.60465 20.7527 8.27981 21.2333 7.80028C21.5146 7.52027 20.6443 6.64171 20.3629 6.92348C20.0903 7.19474 18.1749 9.11462 18.1749 9.11462C18.1749 9.11462 18.1924 7.90879 18.1749 7.242C18.1679 6.98823 17.8586 6.86572 17.5405 6.86572C17.2015 6.86572 16.8537 7.00573 16.8607 7.277" fill="white"/>
</mask>
<g mask="url(#mask3_277_229)">
<path d="M21.6737 6.64526H16.8467V13.2537H21.6737V6.64526Z" fill="#371C1D"/>
</g>
</g>
<defs>
<clipPath id="clip0_277_229">
<rect width="25" height="23" fill="white"/>
</clipPath>
</defs>
</svg>
